<svg width="16" height="16" viewBox="0 0 16 16" fill="none" xmlns="http://www.w3.org/2000/svg">
<path fill-rule="evenodd" clip-rule="evenodd" d="M13.5704 8.31868H12.8214C12.6303 8.31868 12.4751 8.1635 12.4751 7.97241C12.4751 7.78133 12.6303 7.62615 12.8214 7.62615H13.4755C13.521 7.85507 13.5531 8.08591 13.5704 8.31868ZM13.596 10.102C13.596 10.3957 13.3575 10.6343 13.0638 10.6343H12.8785C12.7201 10.2604 12.4687 9.94173 12.1513 9.67561C12.1038 9.63329 12.0551 9.59161 12.0038 9.55313C11.966 9.52556 11.9275 9.49927 11.8877 9.47362C11.7749 9.39859 11.6569 9.33126 11.5318 9.27226C11.5197 9.26649 11.4895 9.2511 11.4863 9.24982C10.949 9.00614 10.3301 8.90034 9.77482 8.90034H8.51669H7.66126C7.65869 8.90034 7.65613 8.89841 7.65356 8.89841H6.35503C5.22771 8.89841 3.84902 9.35883 3.30973 10.6343H3.12377C2.83072 10.6343 2.59217 10.3957 2.59217 10.102V8.94907C2.61077 8.95228 2.62744 8.95997 2.64732 8.95997H3.45401C3.99843 8.95997 4.44154 8.51751 4.44154 7.97244C4.44154 7.42738 3.99843 6.98492 3.45401 6.98492H2.88202C2.94871 6.77843 3.02822 6.57708 3.11864 6.38021H13.0696C13.1606 6.57708 13.2395 6.77843 13.3068 6.98492H12.8214C12.277 6.98492 11.8339 7.42738 11.8339 7.97244C11.8339 8.51751 12.277 8.95997 12.8214 8.95997H13.596V10.102ZM13.596 11.8385C13.596 11.9649 13.4941 12.0668 13.3684 12.0668H12.4136C12.2885 12.0668 12.1866 11.9649 12.1866 11.8385V11.2755H13.0638C13.2562 11.2755 13.4357 11.2249 13.596 11.1421V11.8385ZM4.0305 10.6343C4.52555 9.83659 5.55539 9.5397 6.35503 9.5397H7.65356C7.65613 9.5397 7.65805 9.53841 7.66062 9.53841H8.44615H9.70364C10.2205 9.53841 10.8284 9.64294 11.3343 9.89173C11.3747 9.91289 11.4151 9.93341 11.4536 9.9565C11.5703 10.0219 11.6774 10.0995 11.7774 10.1841C11.9307 10.3169 12.0589 10.4669 12.1609 10.6343H4.0305ZM4.0023 11.8385C4.0023 11.9649 3.8997 12.0668 3.77466 12.0668H2.81982C2.69413 12.0668 2.59217 11.9649 2.59217 11.8385V11.1421C2.75249 11.2249 2.9314 11.2755 3.12378 11.2755H4.0023V11.8385ZM2.71272 7.62615H3.45402C3.64448 7.62615 3.8003 7.78133 3.8003 7.97243C3.8003 8.16352 3.64448 8.31871 3.45402 8.31871H2.64731C2.63641 8.31871 2.62743 8.32384 2.61717 8.32448C2.63513 8.08978 2.66655 7.857 2.71272 7.62615ZM10.754 5.73895H9.52344C9.68631 5.57992 9.90113 5.47988 10.1377 5.47988C10.3737 5.47988 10.5905 5.57992 10.754 5.73895ZM3.66307 5.29911C4.30304 4.07047 5.56181 3.30801 6.94627 3.30801H9.24194C10.627 3.30801 11.8852 4.07047 12.5258 5.29911L12.7547 5.73901H11.5306C11.5299 5.73709 11.5299 5.73517 11.5293 5.73388C11.2818 5.1901 10.7361 4.83869 10.1378 4.83869C9.53563 4.83869 8.99827 5.19267 8.75074 5.73901H3.4335L3.66307 5.29911ZM14.2661 5.20738H13.201L13.0939 5.00218C12.3424 3.56129 10.8669 2.66675 9.24194 2.66675H6.94626C5.32198 2.66675 3.84582 3.56129 3.09428 5.00218L2.98719 5.20738H1.73418C1.14552 5.20738 0.666504 5.68639 0.666504 6.27442C0.666504 6.65789 0.978151 6.96954 1.36034 6.96954H1.73418C1.91117 6.96954 2.05481 6.8259 2.05481 6.64891C2.05481 6.47128 1.91117 6.32829 1.73418 6.32829H1.36034C1.33148 6.32829 1.30775 6.30392 1.30775 6.27442C1.30775 6.03972 1.49949 5.84863 1.73418 5.84863H2.65438C2.19524 6.74061 1.95093 7.73968 1.95093 8.74131V10.102C1.95093 10.2713 1.98812 10.431 2.05289 10.5766C1.99068 10.6349 1.95093 10.717 1.95093 10.8093V11.8385C1.95093 12.3176 2.34081 12.7081 2.81982 12.7081H3.77464C4.25366 12.7081 4.64354 12.3176 4.64354 11.8385V11.2755H11.5453V11.8385C11.5453 12.3176 11.9345 12.7081 12.4136 12.7081H13.3684C13.848 12.7081 14.2373 12.3176 14.2373 11.8385V10.8093C14.2373 10.717 14.1975 10.6349 14.1347 10.5766C14.1994 10.431 14.2373 10.2713 14.2373 10.102V8.74131C14.2373 7.73903 13.9936 6.73997 13.5338 5.84863H14.2661C14.5008 5.84863 14.6919 6.03972 14.6919 6.27442C14.6919 6.30392 14.6688 6.32829 14.6393 6.32829H14.2661C14.0891 6.32829 13.9455 6.47128 13.9455 6.64891C13.9455 6.8259 14.0891 6.96954 14.2661 6.96954H14.6393C15.0222 6.96954 15.3332 6.65789 15.3332 6.27442C15.3332 5.68639 14.8548 5.20738 14.2661 5.20738Z" fill="black" fill-opacity="0.58"/>
<mask id="mask0_2_3441" style="mask-type:alpha" maskUnits="userSpaceOnUse" x="0" y="2" width="16" height="11">
<path fill-rule="evenodd" clip-rule="evenodd" d="M13.5704 8.31868H12.8214C12.6303 8.31868 12.4751 8.1635 12.4751 7.97241C12.4751 7.78133 12.6303 7.62615 12.8214 7.62615H13.4755C13.521 7.85507 13.5531 8.08591 13.5704 8.31868ZM13.596 10.102C13.596 10.3957 13.3575 10.6343 13.0638 10.6343H12.8785C12.7201 10.2604 12.4687 9.94173 12.1513 9.67561C12.1038 9.63329 12.0551 9.59161 12.0038 9.55313C11.966 9.52556 11.9275 9.49927 11.8877 9.47362C11.7749 9.39859 11.6569 9.33126 11.5318 9.27226C11.5197 9.26649 11.4895 9.2511 11.4863 9.24982C10.949 9.00614 10.3301 8.90034 9.77482 8.90034H8.51669H7.66126C7.65869 8.90034 7.65613 8.89841 7.65356 8.89841H6.35503C5.22771 8.89841 3.84902 9.35883 3.30973 10.6343H3.12377C2.83072 10.6343 2.59217 10.3957 2.59217 10.102V8.94907C2.61077 8.95228 2.62744 8.95997 2.64732 8.95997H3.45401C3.99843 8.95997 4.44154 8.51751 4.44154 7.97244C4.44154 7.42738 3.99843 6.98492 3.45401 6.98492H2.88202C2.94871 6.77843 3.02822 6.57708 3.11864 6.38021H13.0696C13.1606 6.57708 13.2395 6.77843 13.3068 6.98492H12.8214C12.277 6.98492 11.8339 7.42738 11.8339 7.97244C11.8339 8.51751 12.277 8.95997 12.8214 8.95997H13.596V10.102ZM13.596 11.8385C13.596 11.9649 13.4941 12.0668 13.3684 12.0668H12.4136C12.2885 12.0668 12.1866 11.9649 12.1866 11.8385V11.2755H13.0638C13.2562 11.2755 13.4357 11.2249 13.596 11.1421V11.8385ZM4.0305 10.6343C4.52555 9.83659 5.55539 9.5397 6.35503 9.5397H7.65356C7.65613 9.5397 7.65805 9.53841 7.66062 9.53841H8.44615H9.70364C10.2205 9.53841 10.8284 9.64294 11.3343 9.89173C11.3747 9.91289 11.4151 9.93341 11.4536 9.9565C11.5703 10.0219 11.6774 10.0995 11.7774 10.1841C11.9307 10.3169 12.0589 10.4669 12.1609 10.6343H4.0305ZM4.0023 11.8385C4.0023 11.9649 3.8997 12.0668 3.77466 12.0668H2.81982C2.69413 12.0668 2.59217 11.9649 2.59217 11.8385V11.1421C2.75249 11.2249 2.9314 11.2755 3.12378 11.2755H4.0023V11.8385ZM2.71272 7.62615H3.45402C3.64448 7.62615 3.8003 7.78133 3.8003 7.97243C3.8003 8.16352 3.64448 8.31871 3.45402 8.31871H2.64731C2.63641 8.31871 2.62743 8.32384 2.61717 8.32448C2.63513 8.08978 2.66655 7.857 2.71272 7.62615ZM10.754 5.73895H9.52344C9.68631 5.57992 9.90113 5.47988 10.1377 5.47988C10.3737 5.47988 10.5905 5.57992 10.754 5.73895ZM3.66307 5.29911C4.30304 4.07047 5.56181 3.30801 6.94627 3.30801H9.24194C10.627 3.30801 11.8852 4.07047 12.5258 5.29911L12.7547 5.73901H11.5306C11.5299 5.73709 11.5299 5.73517 11.5293 5.73388C11.2818 5.1901 10.7361 4.83869 10.1378 4.83869C9.53563 4.83869 8.99827 5.19267 8.75074 5.73901H3.4335L3.66307 5.29911ZM14.2661 5.20738H13.201L13.0939 5.00218C12.3424 3.56129 10.8669 2.66675 9.24194 2.66675H6.94626C5.32198 2.66675 3.84582 3.56129 3.09428 5.00218L2.98719 5.20738H1.73418C1.14552 5.20738 0.666504 5.68639 0.666504 6.27442C0.666504 6.65789 0.978151 6.96954 1.36034 6.96954H1.73418C1.91117 6.96954 2.05481 6.8259 2.05481 6.64891C2.05481 6.47128 1.91117 6.32829 1.73418 6.32829H1.36034C1.33148 6.32829 1.30775 6.30392 1.30775 6.27442C1.30775 6.03972 1.49949 5.84863 1.73418 5.84863H2.65438C2.19524 6.74061 1.95093 7.73968 1.95093 8.74131V10.102C1.95093 10.2713 1.98812 10.431 2.05289 10.5766C1.99068 10.6349 1.95093 10.717 1.95093 10.8093V11.8385C1.95093 12.3176 2.34081 12.7081 2.81982 12.7081H3.77464C4.25366 12.7081 4.64354 12.3176 4.64354 11.8385V11.2755H11.5453V11.8385C11.5453 12.3176 11.9345 12.7081 12.4136 12.7081H13.3684C13.848 12.7081 14.2373 12.3176 14.2373 11.8385V10.8093C14.2373 10.717 14.1975 10.6349 14.1347 10.5766C14.1994 10.431 14.2373 10.2713 14.2373 10.102V8.74131C14.2373 7.73903 13.9936 6.73997 13.5338 5.84863H14.2661C14.5008 5.84863 14.6919 6.03972 14.6919 6.27442C14.6919 6.30392 14.6688 6.32829 14.6393 6.32829H14.2661C14.0891 6.32829 13.9455 6.47128 13.9455 6.64891C13.9455 6.8259 14.0891 6.96954 14.2661 6.96954H14.6393C15.0222 6.96954 15.3332 6.65789 15.3332 6.27442C15.3332 5.68639 14.8548 5.20738 14.2661 5.20738Z" fill="white"/>
</mask>
<g mask="url(#mask0_2_3441)">
</g>
</svg>
