<svg width="24" height="24" viewBox="0 0 24 24" fill="none" xmlns="http://www.w3.org/2000/svg">
<path fill-rule="evenodd" clip-rule="evenodd" d="M17.5345 4.64685L16.2855 5.98246C14.0415 8.38217 13.7154 11.5594 15.4414 14.2063L15.4615 14.2372H15.6034H17.5345V4.64685ZM14.5805 14.5469L14.6379 14.6349V14.9892V20.4108C14.6379 21.2415 15.5025 21.9148 16.569 21.9148C17.6354 21.9148 18.5 21.2415 18.5 20.4108V15.0051V14.9892V14.2531V14.2372V3.49195C18.5 3.12794 17.9022 2.97635 17.627 3.27059L15.5051 5.53976C13.0473 8.168 12.6901 11.6479 14.5805 14.5469ZM15.6034 20.4108V15.0051H17.5345V20.4108C17.5345 20.8262 17.1022 21.1628 16.569 21.1628C16.0357 21.1628 15.6034 20.8262 15.6034 20.4108ZM7.39655 4.26394C7.66318 4.26394 7.87931 4.43227 7.87931 4.63993V9.97477C8.71217 9.80779 9.32759 9.21894 9.32759 8.51817V4.63993C9.32759 4.43227 9.54372 4.26394 9.81034 4.26394C10.077 4.26394 10.2931 4.43227 10.2931 4.63993V8.51817C10.2931 9.636 9.24923 10.564 7.87931 10.7429V14.2372H8.36207H9.32759V14.9892V20.4108C9.32759 21.2415 8.46301 21.9148 7.39655 21.9148C6.33009 21.9148 5.46552 21.2415 5.46552 20.4108V14.9892V14.2372H6.43103H6.91379V10.7429C5.54387 10.564 4.5 9.636 4.5 8.51817V4.63993C4.5 4.43227 4.71613 4.26394 4.98276 4.26394C5.24939 4.26394 5.46552 4.43227 5.46552 4.63993V8.51817C5.46552 9.21894 6.08094 9.80779 6.91379 9.97477V4.63993C6.91379 4.43227 7.12992 4.26394 7.39655 4.26394ZM7.39655 14.9968C7.36324 14.9968 7.33075 14.9942 7.29937 14.9892H6.43103V20.4108C6.43103 20.8262 6.8633 21.1628 7.39655 21.1628C7.92981 21.1628 8.36207 20.8262 8.36207 20.4108V14.9892H7.49373C7.46235 14.9942 7.42986 14.9968 7.39655 14.9968Z" fill="black" fill-opacity="0.58"/>
</svg>
