<svg width="24" height="24" viewBox="0 0 24 24" fill="none" xmlns="http://www.w3.org/2000/svg">
<g clip-path="url(#clip0_20640_102973)">
<path d="M0.241388 9.39064C-0.0630187 9.10972 -0.0820968 8.63525 0.198825 8.33084C1.68748 6.71759 3.45387 5.44681 5.44897 4.5538C7.51503 3.62905 9.71909 3.16016 12 3.16016C14.281 3.16016 16.485 3.62905 18.551 4.5538C20.5461 5.44681 22.3126 6.71759 23.8012 8.33084C24.0821 8.63525 24.063 9.10977 23.7586 9.39064C23.6144 9.52367 23.432 9.58944 23.2502 9.58944C23.0481 9.58944 22.8467 9.5083 22.6988 9.34808C19.9497 6.36884 16.0501 4.66016 12 4.66016C7.94994 4.66016 4.05036 6.36884 1.30123 9.34808C1.02031 9.65248 0.545794 9.67152 0.241388 9.39064ZM19.2843 12.7431C19.5596 13.0527 20.0336 13.0805 20.3431 12.8052C20.6527 12.53 20.6805 12.0559 20.4052 11.7464C18.2715 9.34667 15.2079 7.97042 12 7.97042C8.79214 7.97042 5.72858 9.34672 3.59483 11.7464C3.31958 12.056 3.34737 12.53 3.65693 12.8053C3.79986 12.9323 3.97775 12.9948 4.15503 12.9948C4.36175 12.9948 4.56762 12.9098 4.71579 12.7431C6.56515 10.6633 9.22015 9.47047 12 9.47047C14.7799 9.47042 17.4349 10.6633 19.2843 12.7431ZM15.8482 16.1266C15.9964 16.311 16.2138 16.4068 16.4332 16.4068C16.5981 16.4068 16.7641 16.3527 16.9026 16.2413C17.2254 15.9818 17.2768 15.5098 17.0173 15.1869C15.7882 13.6577 13.9595 12.7806 12 12.7806C10.0406 12.7806 8.21192 13.6577 6.98272 15.1869C6.72322 15.5097 6.77454 15.9818 7.09742 16.2413C7.42029 16.5009 7.89237 16.4495 8.15187 16.1266C9.09486 14.9535 10.4975 14.2807 12 14.2807C13.5027 14.2806 14.9052 14.9535 15.8482 16.1266ZM12 17.5909C12.8956 17.5909 13.6243 18.3195 13.6243 19.2152C13.6243 20.1108 12.8957 20.8394 12 20.8394C11.1044 20.8394 10.3758 20.1108 10.3758 19.2152C10.3758 18.3196 11.1044 17.5909 12 17.5909ZM12 19.0909C11.9327 19.0909 11.8758 19.1478 11.8758 19.2152C11.8758 19.2825 11.9327 19.3394 12 19.3394C12.0674 19.3394 12.1243 19.2825 12.1243 19.2152C12.1242 19.1479 12.0674 19.0909 12 19.0909Z" fill="#606060"/>
</g>
<defs>
<clipPath id="clip0_20640_102973">
<rect width="24" height="24" fill="white"/>
</clipPath>
</defs>
</svg>
