<svg width="64" height="64" viewBox="0 0 64 64" fill="none" xmlns="http://www.w3.org/2000/svg">
<rect width="64" height="64" rx="8" fill="#EAEAEA"/>
<mask id="mask0_4669_28277" style="mask-type:alpha" maskUnits="userSpaceOnUse" x="13" y="13" width="39" height="39">
<path d="M32.5002 51.9825C43.2601 51.9825 51.9828 43.2599 51.9828 32.4999C51.9828 21.74 43.2601 13.0173 32.5002 13.0173C21.7402 13.0173 13.0176 21.74 13.0176 32.4999C13.0176 43.2599 21.7402 51.9825 32.5002 51.9825Z" fill="#006241"/>
</mask>
<g mask="url(#mask0_4669_28277)">
<path d="M32.5002 51.9825C43.2601 51.9825 51.9828 43.2599 51.9828 32.4999C51.9828 21.74 43.2601 13.0173 32.5002 13.0173C21.7402 13.0173 13.0176 21.74 13.0176 32.4999C13.0176 43.2599 21.7402 51.9825 32.5002 51.9825Z" fill="#D2D2D2"/>
<path d="M29.5058 44.9752C29.5058 42.8683 27.0486 41.2815 27.0486 39.2971C27.0486 37.3136 29.3398 36.6214 29.3398 34.2033C29.3398 32.1525 27.6342 30.4337 27.6342 28.3183C27.6342 26.5978 28.1266 25.4361 29.0492 24.2862C29.1358 24.1784 29.0355 24.0687 28.9119 24.1594C28.8844 24.1796 28.857 24.2007 28.8294 24.2216C27.5274 25.2262 26.6353 26.8478 26.6353 28.6497C26.6353 30.9623 28.1213 32.1218 28.1213 34.215C28.1213 36.3082 25.7012 37.2576 25.7012 39.2971C25.7012 41.3375 28.0812 42.9622 28.0812 44.8539C28.0812 46.5831 25.808 48.7685 26.0614 50.8877C26.5593 51.0611 27.0647 51.2189 27.5801 51.3522C27.1813 49.0967 29.5058 46.929 29.5058 44.9752Z" fill="white"/>
<path d="M24.4687 39.297C24.4687 37.4055 26.9332 36.2755 26.9332 34.2457C26.9332 32.2147 25.7096 31.0636 25.7096 28.9905C25.7096 27.1451 26.3584 25.9277 27.4786 24.5867C27.2293 24.7156 27.0222 24.8631 26.8117 25.0478C25.6249 26.0922 24.8556 27.7277 24.8556 29.3428C24.8556 31.5478 25.9251 32.5375 25.9251 34.2582C25.9251 35.979 23.4131 37.3368 23.4131 39.297C23.4131 41.2573 25.5912 42.9242 25.5912 44.5837C25.5912 46.0709 23.7204 48.0499 23.6533 49.8611C24 50.0373 24.3516 50.2048 24.71 50.3607C24.7423 48.2633 26.7621 46.4968 26.7621 44.7295C26.7621 42.7861 24.4687 41.1898 24.4687 39.297Z" fill="white"/>
<path d="M23.915 43.1047C24.643 45.3965 21.945 46.7499 21.7002 48.724C21.9712 48.904 22.2473 49.0769 22.5277 49.2436C22.6708 47.5956 24.4392 46.2806 24.4392 44.6218C24.4392 44.0152 24.1539 43.5087 23.915 43.1047Z" fill="white"/>
<path d="M41.0431 43.1047C40.8053 43.5087 40.52 44.0152 40.52 44.6218C40.52 46.2808 42.2874 47.596 42.4303 49.244C42.7111 49.0771 42.9874 48.904 43.2588 48.7238C43.0141 46.7499 40.3152 45.3963 41.0431 43.1047Z" fill="white"/>
<mask id="mask1_4669_28277" style="mask-type:alpha" maskUnits="userSpaceOnUse" x="28" y="34" width="9" height="18">
<path d="M28.2988 51.9733H36.6602V34.5854H28.2988V51.9733Z" fill="white"/>
</mask>
<g mask="url(#mask1_4669_28277)">
<path d="M36.6602 39.2971C36.6602 37.4656 34.834 36.8664 34.5952 34.9905C34.5614 34.7352 34.3553 34.5452 34.0721 34.5928C33.701 34.6603 33.2258 34.904 32.4797 34.904C31.7335 34.904 31.2579 34.6603 30.8859 34.5928C30.6038 34.5452 30.3976 34.7352 30.3639 34.9905C30.125 36.8664 28.2988 37.4656 28.2988 39.2971C28.2988 41.2405 30.8417 43.0129 30.8417 45.0026C30.8417 46.8372 28.5655 48.8528 28.9969 51.6571C30.1276 51.861 31.29 51.9733 32.4797 51.9733C33.6686 51.9733 34.8309 51.861 35.9612 51.6573C36.3925 48.853 34.1164 46.8372 34.1164 45.0026C34.1164 43.0129 36.6602 41.2405 36.6602 39.2971Z" fill="white"/>
</g>
<path d="M19.6118 47.1203C19.8286 47.3109 20.0488 47.4971 20.274 47.6781C20.4864 47.3122 20.8111 46.8664 21.1791 46.617C21.0069 46.4111 20.8399 46.2003 20.6802 45.9839C20.2469 46.246 19.8613 46.7357 19.6118 47.1203Z" fill="white"/>
<path d="M39.2578 39.297C39.2578 37.2575 36.8376 36.3082 36.8376 34.2149C36.8376 32.1217 38.3234 30.9622 38.3234 28.6496C38.3234 26.8477 37.4316 25.2261 36.1284 24.2218C36.101 24.2006 36.0745 24.1795 36.0461 24.1593C35.9234 24.0688 35.8231 24.1783 35.9097 24.2861C36.8313 25.436 37.3238 26.5977 37.3238 28.3182C37.3238 30.4336 35.6179 32.1524 35.6179 34.2034C35.6179 36.6214 37.9093 37.3135 37.9093 39.297C37.9093 41.2815 35.4531 42.8682 35.4531 44.9751C35.4531 46.9289 37.7777 49.0967 37.3789 51.3521C37.8939 51.2189 38.3989 51.0612 38.8966 50.8879C39.1512 48.7686 36.8768 46.583 36.8768 44.8539C36.8768 42.9621 39.2578 41.3374 39.2578 39.297Z" fill="white"/>
<path d="M41.5462 39.2971C41.5462 37.3368 39.0341 35.979 39.0341 34.2582C39.0341 32.5375 40.1015 31.5478 40.1015 29.3428C40.1015 27.7277 39.3341 26.0922 38.1464 25.0478C37.9359 24.8631 37.7299 24.7156 37.4805 24.5867C38.6008 25.9277 39.2496 27.1451 39.2496 28.9905C39.2496 31.0636 38.0258 32.2147 38.0258 34.2457C38.0258 36.2756 40.4903 37.4055 40.4903 39.2971C40.4903 41.1898 38.195 42.7861 38.195 44.7295C38.195 46.497 40.2159 48.2635 40.2483 50.3609C40.6067 50.205 40.9586 50.0373 41.3057 49.8609C41.2387 48.0497 39.368 46.0709 39.368 44.5838C39.368 42.9242 41.5462 41.2573 41.5462 39.2971Z" fill="white"/>
<path d="M18.4047 33.4755C16.1484 33.3775 15.3581 35.3357 13.1592 34.9754C13.2205 35.4623 13.2944 35.9451 13.3912 36.4201C15.4616 36.6764 16.2129 34.9376 18.0761 34.9388C18.1596 34.4419 18.2695 33.9534 18.4047 33.4755Z" fill="white"/>
<path d="M19.4635 44.0142C18.717 44.21 18.2073 44.9137 17.8281 45.3351C18.0351 45.5706 18.2473 45.801 18.465 46.0262C18.8062 45.6011 19.2451 44.9549 19.8873 44.7812C19.7382 44.53 19.5967 44.2747 19.4635 44.0142Z" fill="white"/>
<path d="M18.8866 32.0331C19.1064 31.476 19.3622 30.937 19.6496 30.419C16.7263 29.9067 15.7321 32.3438 13.0139 31.9735C13.0088 32.1578 13 32.3413 13 32.5269C13 32.8845 13.0112 33.2396 13.0302 33.5925C15.5926 33.8789 16.5532 31.7757 18.8866 32.0331Z" fill="white"/>
<path d="M17.8697 37.3885C17.8697 37.1142 17.8781 36.8419 17.893 36.5719C15.9988 36.5277 15.4209 38.1501 13.7852 37.9922C13.9092 38.4157 14.043 38.8352 14.1947 39.2464C15.735 39.3166 16.2604 37.8242 17.8771 37.8431C17.8718 37.6923 17.8697 37.5415 17.8697 37.3885Z" fill="white"/>
<mask id="mask2_4669_28277" style="mask-type:alpha" maskUnits="userSpaceOnUse" x="45" y="30" width="7" height="4">
<path d="M51.9586 33.6194V30.3479H45.3081V33.6194H51.9586Z" fill="white"/>
</mask>
<g mask="url(#mask2_4669_28277)">
<path d="M51.9446 31.9735C49.2256 32.3438 48.2313 29.9067 45.3081 30.419C45.5956 30.937 45.8523 31.4762 46.0722 32.0331C48.4053 31.7759 49.3652 33.8791 51.9284 33.5925C51.9474 33.2396 51.9588 32.8847 51.9588 32.5269C51.9588 32.3413 51.9497 32.1578 51.9446 31.9735Z" fill="white"/>
</g>
<path d="M19.1751 43.4212C19.286 43.6638 19.452 43.7567 19.7595 43.7567C20.7107 43.7567 22.1839 43.1416 23.3146 42.0138C22.5782 40.6759 22.3552 39.9955 22.3552 39.2971C22.3552 37.5257 24.8745 36.037 24.8745 34.3184C24.8745 32.5988 24.006 31.6153 24.006 29.7522C24.006 28.0737 24.7657 26.6241 25.756 25.4023C25.5108 25.5553 25.2974 25.7273 25.0881 25.9384C24.0101 27.027 23.2968 28.6191 23.2968 30.0877C23.2968 32.0659 24.0397 32.8783 24.0397 34.3448C24.0397 35.6962 21.1726 37.5742 21.4969 39.4194C20.4961 40.3299 19.3009 40.7362 18.2568 40.7362C18.3475 41.1202 18.4534 41.4968 18.5739 41.8683C17.3975 41.9303 16.8586 42.9306 16.2388 43.2629C16.4341 43.5566 16.6352 43.8461 16.8459 44.1284C17.4128 43.7565 17.8811 42.8282 18.9045 42.7881C18.9901 43.0012 19.0801 43.2123 19.1751 43.4212Z" fill="white"/>
<path d="M18.2029 40.4925C18.1257 40.138 18.0612 39.7782 18.0105 39.4153C16.3283 39.3025 15.9448 40.7169 14.8403 40.7802C15.0096 41.1402 15.1874 41.4953 15.3779 41.8427C16.4243 41.7345 16.7396 40.3902 18.2029 40.4925Z" fill="white"/>
<path d="M29.0341 27.4819C29.4125 27.1031 30.2124 27.119 31.0421 27.4249C31.078 27.0123 30.3392 26.563 29.6006 26.563C29.0637 26.563 28.7974 26.7434 28.7974 27.0049C28.7974 27.1737 28.8544 27.3205 29.0341 27.4819Z" fill="white"/>
<path d="M35.358 26.5627C34.9247 26.5627 34.4164 26.6958 34.0962 27.0512C34.0623 27.1473 34.0623 27.2907 34.1099 27.3877C34.8961 27.1187 35.5904 27.1082 35.9245 27.4816C36.1031 27.3202 36.1601 27.1737 36.1601 27.0049C36.1601 26.7431 35.8949 26.5627 35.358 26.5627Z" fill="white"/>
<path d="M33.4476 30.0625C33.4433 30.1194 33.4221 30.1701 33.3809 30.2154C33.0357 30.2683 32.8793 30.4602 32.4797 30.4602C32.0792 30.4602 31.924 30.2683 31.5773 30.2154C31.5371 30.1701 31.516 30.1194 31.5116 30.0625C31.5761 29.9496 31.8752 29.8283 32.0296 29.8273C32.1903 29.8261 32.243 29.9157 32.4797 29.9157C32.7164 29.9157 32.7693 29.8261 32.93 29.8273C33.0843 29.8283 33.3831 29.9496 33.4476 30.0625ZM33.8936 31.1175C33.8936 31.1175 33.9949 31.1544 34.0225 31.2452C33.6145 31.5596 33.3314 32.2727 32.4797 32.2727C31.6269 32.2727 31.3447 31.5596 30.9357 31.2452C30.9631 31.1544 31.0656 31.1175 31.0656 31.1175C31.0656 31.1175 31.6004 31.2431 32.4797 31.2431C33.3588 31.2431 33.8936 31.1175 33.8936 31.1175ZM36.1995 26.0174C35.8023 24.6987 34.2877 23.6775 32.4797 23.6775C30.6715 23.6775 29.1571 24.6987 28.7597 26.0174C28.7291 26.1188 28.7703 26.1841 28.8875 26.1315C29.2132 25.9857 29.583 25.9151 29.9857 25.9151C30.7233 25.9151 31.3733 26.1862 31.757 26.6558C31.9281 27.216 31.9418 28.0273 31.7495 28.4894C31.4462 28.4219 31.3363 28.1866 31.0403 28.1866C30.7435 28.1866 30.514 28.3955 30.0109 28.3955C29.5079 28.3955 29.4487 28.1582 29.1191 28.1582C28.7301 28.1582 28.6582 28.5581 28.6582 29.0096C28.6582 31.0204 30.5099 33.7888 32.4797 33.7888C34.4495 33.7888 36.301 31.0204 36.301 29.0096C36.301 28.5581 36.2081 28.1719 35.8011 28.1191C35.5993 28.2646 35.4133 28.3955 34.9483 28.3955C34.4452 28.3955 34.3069 28.1866 34.0098 28.1866C33.6526 28.1866 33.6886 28.9399 33.2626 28.9822C32.9808 28.3028 32.9659 27.4322 33.2016 26.6558C33.5859 26.1862 34.2359 25.9151 34.9737 25.9151C35.3753 25.9151 35.7494 25.9857 36.0706 26.1315C36.1879 26.1841 36.2291 26.1188 36.1995 26.0174Z" fill="white"/>
<mask id="mask3_4669_28277" style="mask-type:alpha" maskUnits="userSpaceOnUse" x="23" y="14" width="19" height="11">
<path d="M41.4953 14.2402H23.4629V24.354H41.4953V14.2402Z" fill="white"/>
</mask>
<g mask="url(#mask3_4669_28277)">
<path d="M30.4602 21.354C30.5278 21.3046 32.4798 19.8211 32.4798 19.8211C32.4798 19.8211 34.4316 21.3046 34.498 21.354C34.5741 21.41 34.536 21.5049 34.4388 21.488C34.2676 21.4575 33.4443 21.3192 32.4798 21.3192C31.5149 21.3192 30.6916 21.4575 30.5203 21.488C30.4231 21.5049 30.3851 21.41 30.4602 21.354ZM25.641 24.2038C25.7043 24.3462 25.8407 24.3926 25.9887 24.3198C27.9438 23.3503 30.1484 22.8037 32.4798 22.8037C34.8108 22.8037 37.0144 23.3503 38.9705 24.3198C39.1185 24.3926 39.2539 24.3462 39.3172 24.2038C39.8794 22.9451 40.6384 21.7729 41.4953 20.6737C40.0675 20.7748 38.8269 21.2645 37.8249 22.08C38.251 20.874 38.792 19.8201 39.4757 18.7978C37.6601 18.9897 36.1394 19.6544 35.0307 20.7875L34.162 18.5161L36.0897 16.8164L33.5088 16.6349L32.4798 14.24L31.4504 16.6349L28.8695 16.8164L30.7963 18.5161L29.9285 20.7875C28.819 19.6544 27.2993 18.9897 25.4825 18.7978C26.1662 19.8201 26.7073 20.874 27.1343 22.08C26.1313 21.2645 24.8917 20.7748 23.4629 20.6737C24.3189 21.7729 25.0788 22.9451 25.641 24.2038Z" fill="white"/>
</g>
<path d="M44.6117 29.2649C47.4134 28.2953 49.2523 31.0711 51.4124 30.4234C49.3168 28.2024 47.6131 25.6747 47.8371 22.7649C47.852 22.5939 47.6978 22.4969 47.5518 22.5992C46.4843 23.3377 45.7362 24.5606 45.5059 25.9384C44.0221 24.9866 42.2866 24.8517 40.8525 25.4372C42.3289 26.4711 43.6056 27.7689 44.6117 29.2649Z" fill="white"/>
<path d="M20.3452 29.2649C21.3524 27.7689 22.6289 26.4711 24.1053 25.4372C22.6722 24.8517 20.936 24.9866 19.4522 25.9384C19.2229 24.5606 18.4745 23.3377 17.4073 22.5992C17.2603 22.4969 17.1071 22.5939 17.1198 22.7649C17.3459 25.6747 15.6412 28.2024 13.5454 30.4234C15.7057 31.0711 17.5446 28.2953 20.3452 29.2649Z" fill="white"/>
<path d="M46.702 40.7362C45.6567 40.7362 44.4625 40.3301 43.4617 39.4196C43.7851 37.5742 40.9169 35.6962 40.9169 34.3448C40.9169 32.8783 41.6608 32.0659 41.6608 30.0877C41.6608 28.6191 40.9465 27.027 39.8707 25.9384C39.6614 25.7273 39.4478 25.5553 39.2026 25.4023C40.1919 26.6241 40.9528 28.0737 40.9528 29.7522C40.9528 31.6154 40.0841 32.5988 40.0841 34.3184C40.0841 36.0372 42.6024 37.5257 42.6024 39.2971C42.6024 39.9955 42.3794 40.6761 41.644 42.0139C42.7749 43.1417 44.2479 43.7567 45.1982 43.7567C45.5068 43.7567 45.6726 43.6638 45.7825 43.4212C45.8776 43.2123 45.9675 43.0014 46.0532 42.7882C47.0761 42.8283 47.5454 43.7577 48.1118 44.1292C48.3691 43.8164 48.4706 43.6814 48.7193 43.2632C48.0984 42.9314 47.5603 41.9305 46.3849 41.8683C46.5055 41.4968 46.6111 41.1202 46.702 40.7362Z" fill="white"/>
<path d="M44.2777 45.9839C44.1182 46.2003 43.9513 46.4111 43.7788 46.6169C44.1482 46.8666 44.4731 47.3126 44.6844 47.6782C44.9093 47.4975 45.1298 47.3112 45.3465 47.1207C45.0981 46.7359 44.7112 46.246 44.2777 45.9839Z" fill="white"/>
<path d="M45.4952 44.0142C45.3619 44.2747 45.2194 44.53 45.0703 44.7812C45.7127 44.9549 46.1528 45.6015 46.4928 46.0266C46.7109 45.8012 46.9233 45.5706 47.1303 45.3349C46.7501 44.9135 46.2404 44.21 45.4952 44.0142Z" fill="white"/>
<path d="M46.5542 33.4755C46.6884 33.9534 46.7972 34.4419 46.8819 34.9388C48.7461 34.9376 49.4964 36.6764 51.5677 36.4201C51.6644 35.9451 51.7384 35.4623 51.7998 34.9754C49.5999 35.3357 48.8094 33.3775 46.5542 33.4755Z" fill="white"/>
<path d="M47.0659 36.5719C47.0808 36.8421 47.089 37.1142 47.089 37.3885C47.089 37.5415 47.0849 37.6923 47.0808 37.8433C48.6973 37.8244 49.2237 39.3154 50.7638 39.2464C50.9154 38.8354 51.0495 38.4157 51.1735 37.9922C49.5382 38.1509 48.9605 36.5277 47.0659 36.5719Z" fill="white"/>
<path d="M46.9473 39.4153C46.8966 39.7782 46.8333 40.138 46.7549 40.4925C48.2197 40.3902 48.5336 41.7351 49.5809 41.8429C49.7712 41.4955 49.9489 41.1402 50.1182 40.7803C49.012 40.7177 48.631 39.3025 46.9473 39.4153Z" fill="white"/>
</g>
<path fill-rule="evenodd" clip-rule="evenodd" d="M44.617 50.5416H44.1186V51.8759H43.8007V50.5416H43.2944V50.259H44.617V50.5416ZM46.7519 51.8759H46.43V50.6711H46.4222L45.9552 51.8759H45.7394L45.2684 50.6711H45.2606V51.8759H44.9427V50.259H45.4058L45.8492 51.405L46.2927 50.259H46.7519V51.8759Z" fill="#D2D2D2"/>
</svg>
