<svg width="18" height="18" viewBox="0 0 18 18" fill="none" xmlns="http://www.w3.org/2000/svg">
<path d="M17.5434 0C17.7704 0 17.9586 0.163192 17.994 0.377008L18 0.45V17.55C18 17.7737 17.8344 17.9592 17.6175 17.9941L17.5434 18H3.41461C3.16246 18 2.95805 17.7985 2.95805 17.55C2.95805 17.3263 3.12362 17.1408 3.34055 17.1059L3.41461 17.1H9.88941V0.9H3.53913V3.10909C3.53913 3.33277 3.37356 3.51833 3.15662 3.5532L3.08257 3.55909C2.85563 3.55909 2.66737 3.3959 2.63199 3.18208L2.62601 3.10909V0.45C2.62601 0.226325 2.79158 0.0407653 3.00851 0.00589013L3.08257 0H17.5434ZM2.94687 9.77727C4.10582 9.77727 5.08484 11.2381 5.61903 13.1044L5.67455 13.3058L5.75643 13.6435C5.8457 14.0497 5.89373 14.4224 5.89373 14.7273C5.89373 16.6829 0 16.6829 0 14.7273C0 14.4732 0.0333557 14.172 0.0974052 13.8381L0.139497 13.634L0.221477 13.2968C0.739188 11.3443 1.74652 9.77727 2.94687 9.77727ZM2.94687 10.6773C2.36545 10.6773 1.58707 11.852 1.15887 13.3291L1.10721 13.5153L1.02972 13.834C0.953219 14.1821 0.913113 14.4933 0.913113 14.7273C0.913113 14.9775 1.78515 15.294 2.94687 15.294C4.10858 15.294 4.98062 14.9775 4.98062 14.7273C4.98062 14.5401 4.95495 14.3035 4.90664 14.043L4.8662 13.8435L4.78882 13.5243C4.37187 11.9519 3.5525 10.6773 2.94687 10.6773ZM17.0864 0.9L10.8025 0.899182V17.0992L17.0864 17.1V0.9ZM8.50822 5.21491C8.73516 5.21491 8.92342 5.3781 8.9588 5.59192L8.96478 5.66491V12.2104C8.96478 12.4589 8.76037 12.6604 8.50822 12.6604C8.28129 12.6604 8.09302 12.4972 8.05764 12.2834L8.05166 12.2104V5.66491C8.05166 5.41638 8.25607 5.21491 8.50822 5.21491ZM12.2437 5.21491C12.4706 5.21491 12.6589 5.3781 12.6943 5.59192L12.7002 5.66491V12.2104C12.7002 12.4589 12.4958 12.6604 12.2437 12.6604C12.0168 12.6604 11.8285 12.4972 11.7931 12.2834L11.7871 12.2104V5.66491C11.7871 5.41638 11.9915 5.21491 12.2437 5.21491ZM2.92917 5.29713C4.07531 5.29713 5.00443 6.21291 5.00443 7.34259C5.00443 8.47226 4.07531 9.38804 2.92917 9.38804C1.78304 9.38804 0.853915 8.47226 0.853915 7.34259C0.853915 6.21291 1.78304 5.29713 2.92917 5.29713ZM2.92917 6.11531C2.24149 6.11531 1.68402 6.66478 1.68402 7.34259C1.68402 8.02039 2.24149 8.56986 2.92917 8.56986C3.61685 8.56986 4.17433 8.02039 4.17433 7.34259C4.17433 6.66478 3.61685 6.11531 2.92917 6.11531Z" fill="white"/>
</svg>
