<svg width="18" height="18" viewBox="0 0 18 18" fill="none" xmlns="http://www.w3.org/2000/svg">
<mask id="path-1-inside-1_13678_52160" fill="white">
<path d="M10.983 18.0007H0.305038C0.136623 18.0007 0 17.8666 0 17.7007V9.60074C0 9.43487 0.136623 9.30078 0.305038 9.30078H10.983C11.1514 9.30078 11.288 9.43488 11.288 9.60074V17.7007C11.288 17.8666 11.1514 18.0007 10.983 18.0007ZM0.610011 17.4006H10.6777V9.90076H0.610011V17.4006Z"/>
</mask>
<path d="M10.983 18.0007H0.305038C0.136623 18.0007 0 17.8666 0 17.7007V9.60074C0 9.43487 0.136623 9.30078 0.305038 9.30078H10.983C11.1514 9.30078 11.288 9.43488 11.288 9.60074V17.7007C11.288 17.8666 11.1514 18.0007 10.983 18.0007ZM0.610011 17.4006H10.6777V9.90076H0.610011V17.4006Z" fill="white"/>
<path d="M0.610011 17.4006H-1.38999V19.4006H0.610011V17.4006ZM10.6777 17.4006V19.4006H12.6777V17.4006H10.6777ZM10.6777 9.90076H12.6777V7.90076H10.6777V9.90076ZM0.610011 9.90076V7.90076H-1.38999V9.90076H0.610011ZM10.983 16.0007H0.305038V20.0007H10.983V16.0007ZM0.305038 16.0007C1.20828 16.0007 2 16.7294 2 17.7007H-2C-2 19.0038 -0.935033 20.0007 0.305038 20.0007V16.0007ZM2 17.7007V9.60074H-2V17.7007H2ZM2 9.60074C2 10.5721 1.20827 11.3008 0.305038 11.3008V7.30078C-0.935027 7.30078 -2 8.29767 -2 9.60074H2ZM0.305038 11.3008H10.983V7.30078H0.305038V11.3008ZM10.983 11.3008C10.0798 11.3008 9.28804 10.5721 9.28804 9.60074H13.288C13.288 8.29769 12.2231 7.30078 10.983 7.30078V11.3008ZM9.28804 9.60074V17.7007H13.288V9.60074H9.28804ZM9.28804 17.7007C9.28804 16.7294 10.0798 16.0007 10.983 16.0007V20.0007C12.2231 20.0007 13.288 19.0038 13.288 17.7007H9.28804ZM0.610011 19.4006H10.6777V15.4006H0.610011V19.4006ZM12.6777 17.4006V9.90076H8.6777V17.4006H12.6777ZM10.6777 7.90076H0.610011V11.9008H10.6777V7.90076ZM-1.38999 9.90076V17.4006H2.61001V9.90076H-1.38999Z" fill="#1E3932" mask="url(#path-1-inside-1_13678_52160)"/>
<mask id="path-3-inside-2_13678_52160" fill="white">
<path d="M10.9828 9.9007H0.304877C0.199921 9.9007 0.102624 9.84759 0.0468268 9.76033C-0.00897047 9.67307 -0.0153543 9.56383 0.0301001 9.47079L3.69108 1.97091C3.74164 1.86708 3.84864 1.80078 3.96586 1.80078H14.3385C14.4417 1.80078 14.5377 1.85214 14.5939 1.93664C14.6503 2.02151 14.6591 2.12899 14.6176 2.22128L11.2616 9.72115C11.2132 9.83051 11.1037 9.9007 10.9826 9.9007H10.9828ZM0.78963 9.30066H10.7834L13.8709 2.40057L4.1575 2.40069L0.78963 9.30066Z"/>
</mask>
<path d="M10.9828 9.9007H0.304877C0.199921 9.9007 0.102624 9.84759 0.0468268 9.76033C-0.00897047 9.67307 -0.0153543 9.56383 0.0301001 9.47079L3.69108 1.97091C3.74164 1.86708 3.84864 1.80078 3.96586 1.80078H14.3385C14.4417 1.80078 14.5377 1.85214 14.5939 1.93664C14.6503 2.02151 14.6591 2.12899 14.6176 2.22128L11.2616 9.72115C11.2132 9.83051 11.1037 9.9007 10.9826 9.9007H10.9828ZM0.78963 9.30066H10.7834L13.8709 2.40057L4.1575 2.40069L0.78963 9.30066Z" fill="white"/>
<path d="M0.0468268 9.76033L1.73183 8.68293L1.73181 8.6829L0.0468268 9.76033ZM0.0301001 9.47079L1.8271 10.3487L1.8274 10.3481L0.0301001 9.47079ZM3.69108 1.97091L5.48838 2.84824L5.48922 2.84652L3.69108 1.97091ZM14.5939 1.93664L12.9284 3.04394L12.9285 3.04405L14.5939 1.93664ZM14.6176 2.22128L12.7936 1.40105L12.7921 1.40438L14.6176 2.22128ZM11.2616 9.72115L9.43605 8.90425L9.4327 8.91182L11.2616 9.72115ZM0.78963 9.30066L-1.0077 8.42338L-2.4121 11.3007H0.78963V9.30066ZM10.7834 9.30066V11.3007H12.0796L12.609 10.1175L10.7834 9.30066ZM13.8709 2.40057L15.6964 3.21742L16.9569 0.400526L13.8708 0.400566L13.8709 2.40057ZM4.1575 2.40069L4.15748 0.400692L2.90817 0.400708L2.36017 1.52342L4.1575 2.40069ZM10.9828 7.9007H0.304877V11.9007H10.9828V7.9007ZM0.304877 7.9007C0.875026 7.9007 1.41625 8.18938 1.73183 8.68293L-1.63817 10.8377C-1.211 11.5058 -0.475183 11.9007 0.304877 11.9007V7.9007ZM1.73181 8.6829C2.05068 9.18159 2.08873 9.81322 1.8271 10.3487L-1.7669 8.59285C-2.11944 9.31443 -2.06862 10.1645 -1.63815 10.8378L1.73181 8.6829ZM1.8274 10.3481L5.48838 2.84824L1.89378 1.09358L-1.7672 8.59346L1.8274 10.3481ZM5.48922 2.84652C5.19885 3.44281 4.60004 3.80078 3.96586 3.80078V-0.199219C3.09724 -0.199219 2.28443 0.29134 1.89294 1.0953L5.48922 2.84652ZM3.96586 3.80078H14.3385V-0.199219H3.96586V3.80078ZM14.3385 3.80078C13.7797 3.80078 13.2471 3.52336 12.9284 3.04394L16.2594 0.829335C15.8283 0.18091 15.1037 -0.199219 14.3385 -0.199219V3.80078ZM12.9285 3.04405C12.6054 2.55821 12.5522 1.93788 12.7936 1.40105L16.4417 3.0415C16.7661 2.3201 16.6952 1.48481 16.2593 0.829223L12.9285 3.04405ZM12.7921 1.40438L9.43607 8.90426L13.0872 10.538L16.4432 3.03817L12.7921 1.40438ZM9.4327 8.91182C9.7121 8.28044 10.3308 7.9007 10.9826 7.9007V11.9007C11.8766 11.9007 12.7144 11.3806 13.0906 10.5305L9.4327 8.91182ZM10.9826 11.9007H10.9828V7.9007H10.9826V11.9007ZM0.78963 11.3007H10.7834V7.30066H0.78963V11.3007ZM12.609 10.1175L15.6964 3.21742L12.0453 1.58372L8.95786 8.48381L12.609 10.1175ZM13.8708 0.400566L4.15748 0.400692L4.15753 4.40069L13.8709 4.40057L13.8708 0.400566ZM2.36017 1.52342L-1.0077 8.42338L2.58696 10.1779L5.95483 3.27797L2.36017 1.52342Z" fill="#1E3932" mask="url(#path-3-inside-2_13678_52160)"/>
<mask id="path-5-inside-3_13678_52160" fill="white">
<path d="M14.3418 2.40004H3.9691C3.80069 2.40004 3.66406 2.26594 3.66406 2.10008V0.899131C3.66406 0.403553 4.07432 0 4.57829 0H13.7324C14.237 0 14.6471 0.403553 14.6471 0.899131V2.09995C14.6471 2.26594 14.5103 2.40004 14.3419 2.40004L14.3418 2.40004ZM4.27407 1.8H14.0368V0.899131C14.0368 0.734148 13.9004 0.600051 13.7326 0.600051H4.57824C4.41084 0.600051 4.27409 0.734148 4.27409 0.899131L4.27407 1.8Z"/>
</mask>
<path d="M14.3418 2.40004H3.9691C3.80069 2.40004 3.66406 2.26594 3.66406 2.10008V0.899131C3.66406 0.403553 4.07432 0 4.57829 0H13.7324C14.237 0 14.6471 0.403553 14.6471 0.899131V2.09995C14.6471 2.26594 14.5103 2.40004 14.3419 2.40004L14.3418 2.40004ZM4.27407 1.8H14.0368V0.899131C14.0368 0.734148 13.9004 0.600051 13.7326 0.600051H4.57824C4.41084 0.600051 4.27409 0.734148 4.27409 0.899131L4.27407 1.8Z" fill="white"/>
<path d="M14.3418 2.40004V4.40004H14.361L14.3803 4.39967L14.3418 2.40004ZM14.3419 2.40004V0.400035H14.3227L14.3034 0.400406L14.3419 2.40004ZM4.27407 1.8L2.27407 1.79995L2.27403 3.8H4.27407V1.8ZM14.0368 1.8V3.8H16.0368V1.8H14.0368ZM4.27409 0.899131L6.27409 0.899174V0.899131H4.27409ZM14.3418 0.400039H3.9691V4.40004H14.3418V0.400039ZM3.9691 0.400039C4.87235 0.400039 5.66406 1.12875 5.66406 2.10008H1.66406C1.66406 3.40313 2.72902 4.40004 3.9691 4.40004V0.400039ZM5.66406 2.10008V0.899131H1.66406V2.10008H5.66406ZM5.66406 0.899131C5.66406 1.53929 5.14746 2 4.57829 2V-2C3.00118 -2 1.66406 -0.732188 1.66406 0.899131H5.66406ZM4.57829 2H13.7324V-2H4.57829V2ZM13.7324 2C13.1643 2 12.6471 1.53976 12.6471 0.899131H16.6471C16.6471 -0.73265 15.3097 -2 13.7324 -2V2ZM12.6471 0.899131V2.09995H16.6471V0.899131H12.6471ZM12.6471 2.09995C12.6471 1.12819 13.4393 0.400035 14.3419 0.400035V4.40004C15.5814 4.40004 16.6471 3.40369 16.6471 2.09995H12.6471ZM14.3034 0.400406L14.3033 0.400409L14.3803 4.39967L14.3804 4.39966L14.3034 0.400406ZM4.27407 3.8H14.0368V-0.200003H4.27407V3.8ZM16.0368 1.8V0.899131H12.0368V1.8H16.0368ZM16.0368 0.899131C16.0368 -0.401959 14.9732 -1.39995 13.7326 -1.39995V2.60005C12.8277 2.60005 12.0368 1.87025 12.0368 0.899131H16.0368ZM13.7326 -1.39995H4.57824V2.60005H13.7326V-1.39995ZM4.57824 -1.39995C3.33973 -1.39995 2.27409 -0.403585 2.27409 0.899131H6.27409C6.27409 1.87188 5.48195 2.60005 4.57824 2.60005V-1.39995ZM2.27409 0.899087L2.27407 1.79995L6.27407 1.80004L6.27409 0.899174L2.27409 0.899087Z" fill="#1E3932" mask="url(#path-5-inside-3_13678_52160)"/>
<mask id="path-7-inside-4_13678_52160" fill="white">
<path d="M17.6965 18.0007H10.9849C10.8164 18.0007 10.6798 17.8666 10.6798 17.7007L10.6797 9.60074C10.6797 9.55906 10.6885 9.51825 10.7056 9.48008L14.0616 1.9802C14.1101 1.87097 14.2199 1.80078 14.3407 1.80078C14.4615 1.80078 14.5713 1.87097 14.6199 1.9802L17.9759 9.48008C17.993 9.51825 18.0018 9.55906 18.0018 9.60074V17.7007C18.0018 17.8666 17.8652 18.0007 17.6967 18.0007H17.6965ZM11.2898 17.4006H17.3916V9.66355L14.3407 2.84542L11.2899 9.66355L11.2898 17.4006Z"/>
</mask>
<path d="M17.6965 18.0007H10.9849C10.8164 18.0007 10.6798 17.8666 10.6798 17.7007L10.6797 9.60074C10.6797 9.55906 10.6885 9.51825 10.7056 9.48008L14.0616 1.9802C14.1101 1.87097 14.2199 1.80078 14.3407 1.80078C14.4615 1.80078 14.5713 1.87097 14.6199 1.9802L17.9759 9.48008C17.993 9.51825 18.0018 9.55906 18.0018 9.60074V17.7007C18.0018 17.8666 17.8652 18.0007 17.6967 18.0007H17.6965ZM11.2898 17.4006H17.3916V9.66355L14.3407 2.84542L11.2899 9.66355L11.2898 17.4006Z" fill="white"/>
<path d="M10.6798 17.7007H12.6798V17.7007L10.6798 17.7007ZM10.6797 9.60074H8.67969V9.60077L10.6797 9.60074ZM10.7056 9.48008L12.5306 10.2982L12.5312 10.297L10.7056 9.48008ZM14.0616 1.9802L15.8872 2.7971L15.8894 2.7921L14.0616 1.9802ZM14.6199 1.9802L12.7921 2.7921L12.7943 2.7971L14.6199 1.9802ZM17.9759 9.48008L16.1503 10.297L16.1508 10.2982L17.9759 9.48008ZM11.2898 17.4006L9.28983 17.4006L9.28981 19.4006H11.2898V17.4006ZM17.3916 17.4006V19.4006H19.3916V17.4006H17.3916ZM17.3916 9.66355H19.3916V9.23648L19.2171 8.84666L17.3916 9.66355ZM14.3407 2.84542L16.1662 2.02853L14.3406 -2.05132L12.5151 2.02856L14.3407 2.84542ZM11.2899 9.66355L9.46431 8.84669L9.28989 9.23649L9.28989 9.66353L11.2899 9.66355ZM17.6965 16.0007H10.9849V20.0007H17.6965V16.0007ZM10.9849 16.0007C11.8881 16.0007 12.6798 16.7294 12.6798 17.7007H8.67982C8.67982 19.0038 9.74478 20.0007 10.9849 20.0007V16.0007ZM12.6798 17.7007L12.6797 9.60071L8.67969 9.60077L8.67982 17.7008L12.6798 17.7007ZM12.6797 9.60074C12.6797 9.8442 12.6276 10.0819 12.5306 10.2982L8.88058 8.66199C8.74942 8.95458 8.67969 9.27392 8.67969 9.60074H12.6797ZM12.5312 10.297L15.8872 2.7971L12.236 1.16331L8.88004 8.66319L12.5312 10.297ZM15.8894 2.7921C15.6095 3.42216 14.9919 3.80078 14.3407 3.80078V-0.199219C13.448 -0.199219 12.6107 0.31978 12.2338 1.16831L15.8894 2.7921ZM14.3407 3.80078C13.6896 3.80078 13.0719 3.42214 12.7921 2.7921L16.4476 1.16831C16.0707 0.319793 15.2335 -0.199219 14.3407 -0.199219V3.80078ZM12.7943 2.7971L16.1503 10.297L19.8014 8.66319L16.4454 1.16331L12.7943 2.7971ZM16.1508 10.2982C16.0539 10.0819 16.0018 9.8442 16.0018 9.60074H20.0018C20.0018 9.27392 19.932 8.95458 19.8009 8.66199L16.1508 10.2982ZM16.0018 9.60074V17.7007H20.0018V9.60074H16.0018ZM16.0018 17.7007C16.0018 16.7294 16.7935 16.0007 17.6967 16.0007V20.0007C18.9368 20.0007 20.0018 19.0038 20.0018 17.7007H16.0018ZM17.6967 16.0007H17.6965V20.0007H17.6967V16.0007ZM11.2898 19.4006H17.3916V15.4006H11.2898V19.4006ZM19.3916 17.4006V9.66355H15.3916V17.4006H19.3916ZM19.2171 8.84666L16.1662 2.02853L12.5151 3.6623L15.566 10.4804L19.2171 8.84666ZM12.5151 2.02856L9.46431 8.84669L13.1155 10.4804L16.1662 3.66227L12.5151 2.02856ZM9.28989 9.66353L9.28983 17.4006L13.2898 17.4007L13.2899 9.66357L9.28989 9.66353Z" fill="#1E3932" mask="url(#path-7-inside-4_13678_52160)"/>
<mask id="path-9-inside-5_13678_52160" fill="white">
<path d="M14.3363 15.6008C14.1679 15.6008 14.0312 15.4667 14.0312 15.3008V2.10074C14.0312 1.93487 14.1679 1.80078 14.3363 1.80078C14.5047 1.80078 14.6413 1.93488 14.6413 2.10074V15.3008C14.6415 15.4667 14.5047 15.6008 14.3363 15.6008Z"/>
</mask>
<path d="M14.3363 15.6008C14.1679 15.6008 14.0312 15.4667 14.0312 15.3008V2.10074C14.0312 1.93487 14.1679 1.80078 14.3363 1.80078C14.5047 1.80078 14.6413 1.93488 14.6413 2.10074V15.3008C14.6415 15.4667 14.5047 15.6008 14.3363 15.6008Z" fill="white"/>
<path d="M14.6413 15.3008H12.6413L12.6413 15.3024L14.6413 15.3008ZM14.3363 13.6008C15.2395 13.6008 16.0312 14.3295 16.0312 15.3008H12.0312C12.0312 16.6039 13.0962 17.6008 14.3363 17.6008V13.6008ZM16.0312 15.3008V2.10074H12.0312V15.3008H16.0312ZM16.0312 2.10074C16.0312 3.07209 15.2395 3.80078 14.3363 3.80078V-0.199219C13.0962 -0.199219 12.0312 0.797664 12.0312 2.10074H16.0312ZM14.3363 3.80078C13.433 3.80078 12.6413 3.07206 12.6413 2.10074H16.6413C16.6413 0.797698 15.5764 -0.199219 14.3363 -0.199219V3.80078ZM12.6413 2.10074V15.3008H16.6413V2.10074H12.6413ZM12.6413 15.3024C12.6406 14.3284 13.4345 13.6008 14.3363 13.6008V17.6008C15.5749 17.6008 16.6423 16.6049 16.6413 15.2993L12.6413 15.3024Z" fill="#1E3932" mask="url(#path-9-inside-5_13678_52160)"/>
<mask id="path-11-inside-6_13678_52160" fill="white">
<path d="M17.6965 18.0001H10.9848C10.8526 18.0001 10.7355 17.9163 10.6947 17.793C10.6538 17.6695 10.6984 17.5341 10.8054 17.4577L14.1614 15.0576C14.2685 14.9808 14.4134 14.9808 14.5202 15.0576L17.8762 17.4577C17.9829 17.5341 18.0278 17.6695 17.9869 17.793C17.9459 17.9163 17.8288 18.0001 17.6967 18.0001H17.6965ZM11.9229 17.4H16.7583L14.3405 15.6709L11.9229 17.4Z"/>
</mask>
<path d="M17.6965 18.0001H10.9848C10.8526 18.0001 10.7355 17.9163 10.6947 17.793C10.6538 17.6695 10.6984 17.5341 10.8054 17.4577L14.1614 15.0576C14.2685 14.9808 14.4134 14.9808 14.5202 15.0576L17.8762 17.4577C17.9829 17.5341 18.0278 17.6695 17.9869 17.793C17.9459 17.9163 17.8288 18.0001 17.6967 18.0001H17.6965ZM11.9229 17.4H16.7583L14.3405 15.6709L11.9229 17.4Z" fill="white"/>
<path d="M10.6947 17.793L8.79582 18.421L8.79621 18.4222L10.6947 17.793ZM10.8054 17.4577L11.9684 19.0848L11.9688 19.0845L10.8054 17.4577ZM14.1614 15.0576L15.3248 16.6844L15.3271 16.6828L14.1614 15.0576ZM14.5202 15.0576L13.3518 16.6809L13.3568 16.6844L14.5202 15.0576ZM17.8762 17.4577L19.0409 15.8318L19.0396 15.8309L17.8762 17.4577ZM17.9869 17.793L19.8848 18.4239L19.8858 18.421L17.9869 17.793ZM11.9229 17.4L10.7594 15.7733L5.68884 19.4H11.9229V17.4ZM16.7583 17.4V19.4H22.9929L17.9218 15.7733L16.7583 17.4ZM14.3405 15.6709L15.5039 14.0441L14.3404 13.212L13.177 14.0441L14.3405 15.6709ZM17.6965 16.0001H10.9848V20.0001H17.6965V16.0001ZM10.9848 16.0001C11.6975 16.0001 12.3574 16.4525 12.5931 17.1639L8.79621 18.4222C9.11367 19.3801 10.0078 20.0001 10.9848 20.0001V16.0001ZM12.5935 17.1651C12.831 17.8832 12.5655 18.658 11.9684 19.0848L9.64241 15.8306C8.83126 16.4103 8.47661 17.4558 8.79582 18.421L12.5935 17.1651ZM11.9688 19.0845L15.3248 16.6844L12.998 13.4308L9.64197 15.8309L11.9688 19.0845ZM15.3271 16.6828C14.7386 17.1049 13.9442 17.1072 13.3518 16.6809L15.6885 13.4344C14.8827 12.8544 13.7984 12.8567 12.9957 13.4325L15.3271 16.6828ZM13.3568 16.6844L16.7128 19.0845L19.0396 15.8309L15.6836 13.4308L13.3568 16.6844ZM16.7115 19.0836C16.118 18.6584 15.8498 17.8856 16.088 17.1651L19.8858 18.421C20.2057 17.4533 19.8479 16.4099 19.0409 15.8318L16.7115 19.0836ZM16.089 17.1621C16.3249 16.4527 16.9836 16.0001 17.6967 16.0001V20.0001C18.6741 20.0001 19.567 19.38 19.8848 18.4239L16.089 17.1621ZM17.6967 16.0001H17.6965V20.0001H17.6967V16.0001ZM11.9229 19.4H16.7583V15.4H11.9229V19.4ZM17.9218 15.7733L15.5039 14.0441L13.1771 17.2976L15.5949 19.0268L17.9218 15.7733ZM13.177 14.0441L10.7594 15.7733L13.0864 19.0268L15.504 17.2976L13.177 14.0441Z" fill="#1E3932" mask="url(#path-11-inside-6_13678_52160)"/>
</svg>
