<svg width="24" height="24" viewBox="0 0 24 24" fill="none" xmlns="http://www.w3.org/2000/svg">
<path fill-rule="evenodd" clip-rule="evenodd" d="M4.2839 11.6273H10.8868C11.7062 11.6273 12.3727 12.2938 12.3727 13.1132V19.7161L18.8435 5.1565L4.2839 11.6273ZM12.0171 21.9956C11.9764 21.9956 11.9337 21.9906 11.891 21.9817C11.5513 21.9102 11.3795 21.6023 11.3795 21.0669V13.1132C11.3795 12.846 11.154 12.6206 10.8869 12.6206H2.93215C2.39481 12.6206 2.08592 12.4487 2.01342 12.1091C1.9419 11.7704 2.15644 11.4853 2.65305 11.2648L18.7085 4.12951C19.3074 3.86333 19.6411 4.06694 19.7871 4.21195C19.9331 4.35795 20.1367 4.69167 19.8705 5.29158L12.7342 21.347C12.5426 21.7781 12.3022 21.9956 12.0171 21.9956V21.9956Z" fill="black" fill-opacity="0.58"/>
<mask id="mask0_2_3616" style="mask-type:alpha" maskUnits="userSpaceOnUse" x="2" y="4" width="18" height="18">
<path fill-rule="evenodd" clip-rule="evenodd" d="M4.2839 11.6273H10.8868C11.7062 11.6273 12.3727 12.2938 12.3727 13.1132V19.7161L18.8435 5.1565L4.2839 11.6273ZM12.0171 21.9956C11.9764 21.9956 11.9337 21.9906 11.891 21.9817C11.5513 21.9102 11.3795 21.6023 11.3795 21.0669V13.1132C11.3795 12.846 11.154 12.6206 10.8869 12.6206H2.93215C2.39481 12.6206 2.08592 12.4487 2.01342 12.1091C1.9419 11.7704 2.15644 11.4853 2.65305 11.2648L18.7085 4.12951C19.3074 3.86333 19.6411 4.06694 19.7871 4.21195C19.9331 4.35795 20.1367 4.69167 19.8705 5.29158L12.7342 21.347C12.5426 21.7781 12.3022 21.9956 12.0171 21.9956V21.9956Z" fill="white"/>
</mask>
<g mask="url(#mask0_2_3616)">
</g>
</svg>
