<?xml version="1.0" encoding="UTF-8"?> <svg xmlns="http://www.w3.org/2000/svg" width="715" height="161" viewBox="0 0 715 161" fill="none"><g clip-path="url(#clip0_1823_4)"><path d="M0.277344 41.83H16.4296L18.0438 48.9301L19.12 49.8201L20.0167 48.9301C25.3975 43.6101 34.3754 40.0601 43.3433 40.0601C66.6699 40.0601 86.4093 57.8101 86.4093 83.5401C86.4093 109.27 66.6699 127.01 43.3433 127.01C34.5548 127.01 25.4075 123.46 20.0167 118.14L19.12 117.25L18.0438 118.14V160.8H0.277344V41.83ZM42.4465 111.04C59.4856 111.04 68.4535 98.6201 68.4535 83.5401C68.4535 68.4601 59.4856 56.0301 42.4465 56.0301C27.1911 56.0301 16.4296 68.4501 16.4296 83.5401C16.4296 98.6301 27.1911 111.04 42.4465 111.04Z" fill="#FF2B85"></path><path d="M131.588 73.46H146.285V69.78C146.285 59.76 139.36 55.08 129.734 55.08C121.972 55.08 116.731 58.76 113.861 66.27L97.8185 62.93C101.366 48.73 113.692 39.71 129.904 39.71C152.533 39.71 163.852 50.74 163.852 72.96V125.24H148.995L147.311 114.22C141.403 122.4 132.614 126.58 120.966 126.58C105.939 126.58 94.7893 117.73 94.7893 101.02C94.7893 84.31 109.487 73.46 131.608 73.46M123.995 111.21C129.904 111.21 135.135 109.38 139.529 105.7C144.093 101.86 146.285 96.68 146.285 89.83V87.99H130.92C120.109 87.99 113.353 93 113.353 101.02C113.353 107.03 117.07 111.21 123.995 111.21Z" fill="#FF2B85"></path><path d="M180.403 41.83H196.545L198.339 48.9301L199.236 49.8101L200.133 48.9301C203.72 43.6001 212.688 40.0601 219.862 40.0601C241.385 40.0601 253.95 54.25 253.95 73.7701V125.24H236.004V73.7701C235.466 62.42 229.906 56.0301 218.069 56.0301C207.486 56.0301 198.698 64.5401 198.339 74.8401V125.24H180.403V41.83Z" fill="#FF2B85"></path><path d="M351.641 125.24H335.489L333.695 118.15L332.798 117.26L331.911 118.15C326.531 123.47 317.553 127.02 308.585 127.02C285.258 127.02 265.519 109.27 265.519 83.5499C265.519 57.8299 285.258 40.0699 308.585 40.0699C317.373 40.0699 326.521 43.6199 331.911 48.9399L332.798 49.8299L333.695 48.9399V4.42993H351.641V125.25V125.24ZM309.482 56.0299C292.433 56.0299 283.285 68.4499 283.285 83.5399C283.285 98.6299 292.433 111.04 309.482 111.04C324.727 111.04 335.489 98.6199 335.489 83.5399C335.489 68.4599 324.727 56.0299 309.482 56.0299Z" fill="#FF2B85"></path><path d="M402.718 73.46H417.416V69.78C417.416 59.76 410.49 55.08 400.865 55.08C393.103 55.08 387.861 58.76 384.992 66.27L368.949 62.93C372.496 48.73 384.822 39.71 401.034 39.71C423.663 39.71 434.983 50.74 434.983 72.96V125.24H420.126L418.442 114.22C412.533 122.4 403.744 126.58 392.096 126.58C377.06 126.58 365.91 117.73 365.91 101.02C365.91 84.31 380.607 73.46 402.728 73.46M395.125 111.21C401.034 111.21 406.265 109.38 410.66 105.7C415.223 101.86 417.416 96.68 417.416 89.83V87.99H402.051C391.239 87.99 384.483 93 384.483 101.02C384.483 107.03 388.2 111.21 395.125 111.21Z" fill="#FF2B85"></path><path d="M536.619 71.81C536.619 57.51 528.887 50.87 514.638 50.87C502.95 50.87 500.05 54.03 494.56 60.26L484.356 56.77C488.561 50.12 495.845 40.75 514.578 40.75C533.311 40.75 547.869 50.09 547.869 70.39V106.57C547.869 112.92 548.397 120.33 549.274 125.1H538.542C537.835 121.04 537.307 116.1 537.307 111.69H536.958C529.395 122.81 520.427 127.22 507.065 127.22C494.58 127.22 478.577 120.51 478.577 102.16C478.577 76.75 506.537 74.45 536.609 74.45V71.8L536.619 71.81ZM533.102 83.81C513.582 83.81 490.893 86.1 490.893 101.63C490.893 113.45 500.917 117.34 510.234 117.34C527.113 117.34 536.609 104.63 536.609 89.98V83.8H533.092L533.102 83.81Z" fill="#FF2B85"></path><path d="M630.573 112.2C623.997 122.1 612.647 127.22 601.467 127.22C577.463 127.22 561.67 109.56 561.67 86.62C561.67 63.68 577.453 46.02 601.467 46.02C612.647 46.02 623.997 51.3 630.573 61.37H630.902V0.469971H642.082V125.24H630.902V112.2H630.573ZM602.623 117.65C619.732 117.65 632.227 104.28 632.227 86.62C632.227 68.96 619.732 55.43 602.623 55.43C584.209 55.43 573.517 69.46 573.517 86.62C573.517 103.78 584.209 117.65 602.623 117.65Z" fill="#FF2B85"></path><path d="M704.738 66.32C701.45 59.88 694.375 55.43 685.826 55.43C677.765 55.43 669.544 58.9 669.544 67.48C669.544 74.74 675.303 78.04 687.958 80.68C706.213 84.48 714.603 91.24 714.603 103.29C714.603 120.95 699.636 127.22 685.656 127.22C673.978 127.22 662.3 122.6 655.235 112.2L664.113 105.6C668.059 112.37 676.28 117.65 685.497 117.65C695.202 117.65 703.582 114.18 703.582 104.12C703.582 96.03 695.521 92.73 680.883 89.27C671.676 87.13 658.842 83.16 658.842 68.47C658.842 52.79 672.324 46.02 686.304 46.02C696.996 46.02 708.176 51.14 713.278 59.88L704.728 66.32H704.738Z" fill="#FF2B85"></path></g><defs><clipPath id="clip0_1823_4"><rect width="715" height="161" fill="white"></rect></clipPath></defs></svg> 