<svg xmlns="http://www.w3.org/2000/svg" width="187" height="38" fill="none"><path fill="#FF2B85" d="M29.734 37.442H8.687C4.45 37.442.98 33.973.98 29.735V8.688C.98 4.449 4.449.98 8.687.98h21.047c4.239 0 7.707 3.47 7.707 7.708v21.047c0 4.238-3.468 7.707-7.707 7.707Z"/><path fill="#fff" d="M30.88 15.417c-.001-.009-.005-.016-.008-.027-.213-.447.103-.779.103-.779h-.002a4.312 4.312 0 0 0 .768-4.134c-.108-.319-.88-.176-1.06-.468-.078-.127-.047-.33-.008-.543a2.92 2.92 0 0 0 .033-.173c.04-.225.061-.438-.054-.552a4.464 4.464 0 0 0-.366-.319l-.078-.061c-.85-.644-1.927-.941-2.998-.889-.936.047-1.93.352-2.643.984l-.002-.001s-.517.409-1.2.187l-.056-.016c-.725-.25-1.468-.45-2.229-.568a12.4 12.4 0 0 0-6.004.568l-.057.016c-.7.225-1.152-.178-1.152-.178-1.343-1.187-4.038-1.477-5.802.012-1.929 1.628-2.035 4.466-.61 6.137h-.003s.314.332.103.779v.002a12.705 12.705 0 0 0-1.302 5.558c0 6.885 5.802 11.897 12.96 11.897 7.157 0 12.959-5.012 12.959-11.897a12.751 12.751 0 0 0-1.291-5.535Zm-11.756 4.899c1.028 0 1.86.223 1.86.62 0 .396-.832 1.293-1.86 1.293-1.027 0-1.86-.896-1.86-1.293-.002-.397.833-.62 1.86-.62ZM8.722 13.06a.625.625 0 0 1-.16-.171 2.453 2.453 0 0 1-.254-1.956C8.676 9.71 9.97 8.998 11.205 9.16c.325.044.64.143.927.303.117.065.225.148.319.244.036.037.072.079.085.13.02.073-.013.154-.065.212a.693.693 0 0 1-.186.135c-1.18.694-2.149 1.688-3.041 2.714-.143.164-.3.317-.521.162Zm3.16 9.788c-1.073-.123-2.005-1.257-2.358-2.396-.155-.503-.528-2.818 1.134-4.493.552-.557 1.327-1.044 2.41-1.368 0 0 .47-.129 1.071-.134.536-.005 1.176.088 1.682.458 1.073.786 1.088 2.111.453 2.79-.635.677-2.075 2.233-2.443 3.506-.368 1.273-.876 1.76-1.949 1.637Zm7.257 3.825h-.033c-2.066-.012-3.735-1.473-3.735-2.938 0-.507.221-.768.773-.63.32.08 1.63.412 2.825.417h.307c1.193-.005 2.506-.337 2.825-.416.552-.137.773.122.773.629 0 1.465-1.67 2.926-3.735 2.938Zm9.584-6.236c-.352 1.142-1.284 2.276-2.358 2.396-1.073.123-1.581-.366-1.95-1.639-.365-1.272-1.806-2.83-2.442-3.506-.635-.676-.622-2.003.452-2.79.505-.369 1.145-.462 1.682-.457.602.005 1.071.133 1.071.133 1.082.327 1.86.813 2.41 1.369 1.663 1.676 1.29 3.991 1.135 4.494Zm1.19-7.638-.053.088a.601.601 0 0 1-.158.171c-.222.155-.379.002-.521-.164-.893-1.026-1.86-2.02-3.042-2.713-.066-.04-.135-.078-.186-.136-.05-.057-.084-.138-.064-.212a.307.307 0 0 1 .084-.13c.094-.096.202-.179.32-.243.286-.16.603-.26.926-.303 1.235-.164 2.53.55 2.896 1.772a2.464 2.464 0 0 1-.202 1.87Z"/><path fill="#fff" d="M14.529 18.015c.387 0 .703-.289.703-.644 0-.355-.316-.643-.703-.643-.388 0-.703.288-.703.643 0 .357.315.644.703.644ZM23.895 16.727c-.388 0-.703.289-.703.644 0 .355.313.644.703.644.39 0 .703-.289.703-.644 0-.355-.316-.643-.703-.643ZM46.452 15.4h2.575v-2.387c0-2.897 1.61-4.828 4.828-4.828l1.61.322v2.898l-1.77-.323c-.967 0-1.448.643-1.448 1.61v2.71h3.218v2.897h-3.218v12.23h-3.218V18.3h-2.577v-2.9ZM63.814 15.08c4.185 0 7.886 3.217 7.886 7.885 0 4.668-3.701 7.886-7.886 7.886-4.184 0-7.886-3.218-7.886-7.886s3.702-7.886 7.886-7.886Zm0 12.873c3.058 0 4.668-2.253 4.668-4.988 0-2.737-1.61-4.989-4.668-4.989-3.057 0-4.667 2.254-4.667 4.989s1.61 4.988 4.667 4.988ZM81.008 15.08c4.185 0 7.886 3.217 7.886 7.885 0 4.668-3.701 7.886-7.886 7.886-4.184 0-7.886-3.218-7.886-7.886s3.702-7.886 7.886-7.886Zm0 12.873c3.058 0 4.668-2.253 4.668-4.988 0-2.737-1.61-4.989-4.668-4.989-3.057 0-4.667 2.254-4.667 4.989s1.61 4.988 4.667 4.988ZM105.765 30.528h-2.897l-.323-1.287-.16-.161-.16.16c-.965.967-2.575 1.61-4.185 1.61-4.184 0-7.725-3.218-7.725-7.885 0-4.668 3.54-7.886 7.725-7.886 1.578 0 3.218.643 4.185 1.61l.16.16.16-.16V8.185h3.219v22.343h.001Zm-7.564-12.552c-3.058 0-4.7 2.254-4.7 4.989s1.642 4.988 4.7 4.988c2.736 0 4.667-2.253 4.667-4.988 0-2.737-1.931-4.989-4.667-4.989ZM108.993 15.4h2.897l.29 1.287.193.16.16-.16c.967-.966 2.575-1.61 4.185-1.61 4.184 0 7.725 3.218 7.725 7.886s-3.541 7.886-7.725 7.886c-1.578 0-3.218-.644-4.185-1.61l-.16-.16-.193.16v8.111h-3.186V15.4h-.001Zm7.564 12.553c3.058 0 4.668-2.253 4.668-4.988 0-2.737-1.61-4.989-4.668-4.989-2.736 0-4.667 2.254-4.667 4.989s1.931 4.988 4.667 4.988ZM132.551 21.136h2.636v-.667c0-1.817-1.243-2.666-2.97-2.666-1.393 0-2.333.667-2.848 2.03l-2.878-.606c.637-2.576 2.849-4.211 5.757-4.211 4.06 0 6.09 1.999 6.09 6.028v9.484h-2.666l-.303-2c-1.06 1.484-2.636 2.243-4.727 2.243-2.698 0-4.697-1.606-4.697-4.635 0-3.121 2.636-5 6.606-5Zm-1.363 6.848c1.06 0 1.999-.334 2.787-1 .819-.699 1.212-1.638 1.212-2.88v-.334h-2.757c-1.94 0-3.151.91-3.151 2.364 0 1.09.667 1.85 1.909 1.85ZM141.307 15.4h2.898l.321 1.287.16.16.161-.16c.643-.966 2.253-1.61 3.54-1.61 3.862 0 6.116 2.575 6.116 6.115v9.334h-3.218v-9.332c-.098-2.06-1.095-3.218-3.218-3.218-1.899 0-3.476 1.545-3.541 3.411v9.14h-3.219V15.4ZM172.029 30.528h-2.898l-.321-1.287-.16-.161-.16.16c-.967.967-2.575 1.61-4.185 1.61-4.184 0-7.725-3.218-7.725-7.885 0-4.668 3.541-7.886 7.725-7.886 1.578 0 3.218.643 4.185 1.61l.16.16.16-.16V8.185h3.219v22.343Zm-7.565-12.552c-3.058 0-4.7 2.254-4.7 4.989s1.642 4.988 4.7 4.988c2.737 0 4.667-2.253 4.667-4.988 0-2.737-1.93-4.989-4.667-4.989ZM181.193 21.136h2.636v-.667c0-1.817-1.243-2.666-2.97-2.666-1.393 0-2.333.667-2.848 2.03l-2.878-.606c.637-2.576 2.849-4.211 5.757-4.211 4.06 0 6.09 1.999 6.09 6.028v9.484h-2.667l-.302-2c-1.061 1.484-2.636 2.243-4.728 2.243-2.697 0-4.696-1.606-4.696-4.635 0-3.121 2.636-5 6.606-5Zm-1.363 6.848c1.06 0 1.999-.334 2.787-1 .818-.699 1.212-1.638 1.212-2.88v-.334h-2.757c-1.94 0-3.152.91-3.152 2.364 0 1.09.668 1.85 1.91 1.85Z"/></svg>